<svg width="156" height="156" viewBox="0 0 156 156" fill="none" xmlns="http://www.w3.org/2000/svg">
<g filter="url(#filter0_d_1801_149)">
<path d="M12 4H128C141.255 4 152 14.7452 152 28V144L12 4Z" fill="url(#paint0_linear_1801_149)"/>
</g>
<path d="M67.0265 37.5117L74.8669 29.6713L80.1617 34.9661L78.6796 36.4482L75.1498 32.9183L73.6111 34.457L76.745 37.5909L75.2968 39.039L72.1629 35.9052L70.2736 37.7945L74.0636 41.5846L72.5816 43.0667L67.0265 37.5117ZM83.8098 38.6142C83.6967 38.9988 83.542 39.4627 83.3459 40.0058C83.1649 40.5488 82.9537 41.1296 82.7124 41.7481C82.4861 42.3665 82.2447 42.9926 81.9883 43.6261C81.7318 44.2597 81.4905 44.8556 81.2642 45.4137C81.8223 45.1874 82.4182 44.9461 83.0518 44.6896C83.6853 44.4332 84.3076 44.1881 84.9185 43.9542C85.5446 43.7204 86.1253 43.5092 86.6608 43.3207C87.2114 43.1321 87.6791 42.9813 88.0637 42.8681L89.6703 44.4747C89.2253 45.0705 88.7086 45.7229 88.1203 46.4319C87.5471 47.1409 86.9324 47.8688 86.2762 48.6155C85.6351 49.3622 84.9826 50.1051 84.3189 50.8443C83.6627 51.591 83.0405 52.2887 82.4521 52.9373L80.7325 51.2176C81.4716 50.4332 82.2711 49.5734 83.131 48.6381C83.9908 47.7028 84.8393 46.7412 85.6766 45.7531C85.224 45.9341 84.7224 46.134 84.1718 46.3527C83.6212 46.5715 83.0706 46.7902 82.52 47.0089C81.977 47.2352 81.4528 47.4502 80.9474 47.6538C80.4496 47.8499 80.0235 48.0196 79.669 48.1629L78.4358 46.9297C78.5791 46.5752 78.7488 46.1491 78.9449 45.6513C79.1485 45.1459 79.3597 44.618 79.5785 44.0674C79.8047 43.5243 80.0272 42.9775 80.246 42.4269C80.4647 41.8763 80.6646 41.3747 80.8456 40.9222C79.8575 41.7594 78.8959 42.6079 77.9606 43.4677C77.0253 44.3276 76.1655 45.1271 75.3811 45.8663L73.6614 44.1466C74.31 43.5583 75.004 42.9322 75.7431 42.2685C76.4898 41.6123 77.2328 40.9599 77.9719 40.3112C78.7262 39.6626 79.454 39.0479 80.1555 38.4671C80.872 37.8863 81.5282 37.3734 82.124 36.9284L83.8098 38.6142ZM89.2709 59.9597C88.8409 59.5298 88.4261 59.0848 88.0264 58.6247C87.6266 58.1797 87.2457 57.6781 86.8837 57.1199L94.4865 49.5171C94.9164 49.8113 95.3614 50.1582 95.8215 50.558C96.2891 50.9502 96.7077 51.3311 97.0773 51.7007C97.5751 52.1985 97.9937 52.6925 98.3331 53.1828C98.6876 53.673 98.929 54.1558 99.0572 54.6309C99.1854 55.1061 99.1892 55.57 99.0685 56.0225C98.9629 56.4751 98.7027 56.9088 98.2879 57.3236C97.6619 57.9496 96.8661 58.142 95.9007 57.9006C96.2099 58.587 96.2929 59.1828 96.1496 59.6882C96.0063 60.1935 95.731 60.6498 95.3237 61.0571C94.5016 61.8792 93.5814 62.196 92.5632 62.0075C91.5525 61.8264 90.455 61.1439 89.2709 59.9597ZM91.8956 55.5473L89.8705 57.5725C89.9836 57.7158 90.1118 57.8667 90.2552 58.025C90.3985 58.1834 90.5606 58.3531 90.7416 58.5342C91.2696 59.0621 91.7712 59.4129 92.2464 59.5863C92.7215 59.7598 93.1628 59.6429 93.5701 59.2356C93.9321 58.8736 94.0528 58.4814 93.9321 58.059C93.819 57.6291 93.5097 57.1614 93.0044 56.6561L91.8956 55.5473ZM93.242 54.201L94.1018 55.0609C94.6449 55.6039 95.1012 55.9245 95.4708 56.0225C95.8479 56.113 96.1911 56.0037 96.5003 55.6944C96.8171 55.3776 96.9189 55.0345 96.8058 54.6649C96.6927 54.2953 96.4023 53.8767 95.9346 53.409C95.7838 53.2582 95.6179 53.0998 95.4368 52.9339C95.2634 52.7604 95.1012 52.6133 94.9503 52.4926L93.242 54.201ZM104.588 59.2116C105.765 60.3882 106.455 61.5007 106.659 62.5491C106.87 63.59 106.534 64.5516 105.652 65.4341C105.101 65.9847 104.524 66.3053 103.921 66.3958C103.332 66.4863 102.703 66.392 102.031 66.1129C101.994 66.4674 101.933 66.8596 101.85 67.2896C101.775 67.7119 101.681 68.1456 101.567 68.5906C101.469 69.0356 101.349 69.4882 101.205 69.9483C101.07 70.4008 100.926 70.8383 100.775 71.2607L98.7956 69.2808C98.9087 68.881 99.0219 68.4737 99.135 68.0589C99.2557 67.6516 99.3613 67.2443 99.4518 66.837C99.5498 66.4373 99.6328 66.0526 99.7007 65.683C99.7761 65.3059 99.8289 64.9514 99.8591 64.6195L98.9879 63.7484L96.1256 66.6107L94.3606 64.8458L102.088 57.1185C102.548 57.4278 102.997 57.771 103.434 58.1481C103.879 58.5327 104.264 58.8872 104.588 59.2116ZM103.185 60.8181C103.057 60.6899 102.936 60.5768 102.823 60.4787C102.718 60.3882 102.616 60.3015 102.518 60.2185L100.391 62.3455L100.889 62.8433C101.552 63.507 102.111 63.8992 102.563 64.0199C103.016 64.1406 103.442 64.001 103.842 63.6013C104.226 63.2166 104.351 62.798 104.215 62.3455C104.094 61.8929 103.751 61.3838 103.185 60.8181ZM101.907 72.3919L109.747 64.5515L115.042 69.8464L113.56 71.3285L110.03 67.7986L108.491 69.3372L111.625 72.4711L110.177 73.9193L107.043 70.7854L105.154 72.6748L108.944 76.4649L107.462 77.947L101.907 72.3919ZM111.22 81.7053C111.567 80.7398 111.944 79.7518 112.351 78.7411C112.759 77.7304 113.174 76.7423 113.596 75.7769C114.018 74.8114 114.429 73.895 114.829 73.0276C115.236 72.1678 115.606 71.406 115.938 70.7423L117.884 72.6882C117.582 73.2916 117.254 73.944 116.9 74.6455C116.56 75.3469 116.221 76.0484 115.881 76.7498C115.549 77.4588 115.233 78.1377 114.931 78.7863C114.629 79.435 114.38 80.0082 114.184 80.506C114.675 80.3024 115.244 80.0497 115.893 79.748C116.549 79.4538 117.228 79.137 117.929 78.7976C118.638 78.4658 119.34 78.1263 120.033 77.7794C120.742 77.4324 121.399 77.1081 122.002 76.8064L123.88 78.6845C123.209 79.0088 122.443 79.3746 121.583 79.7819C120.724 80.1892 119.811 80.6041 118.846 81.0264C117.88 81.4488 116.892 81.8636 115.881 82.2709C114.871 82.6782 113.883 83.0554 112.917 83.4023L111.22 81.7053ZM117.054 87.5395L124.895 79.6991L130.19 84.9939L128.707 86.476L125.178 82.9461L123.639 84.4848L126.773 87.6187L125.325 89.0669L122.191 85.933L120.301 87.8223L124.091 91.6124L122.609 93.0945L117.054 87.5395Z" fill="white"/>
<path d="M117.691 48C117.925 48.4054 118.261 48.742 118.667 48.976C119.072 49.21 119.532 49.3332 120 49.3332C120.468 49.3332 120.928 49.21 121.333 48.976C121.739 48.742 122.075 48.4054 122.309 48" stroke="white" stroke-width="2.66667" stroke-linecap="round" stroke-linejoin="round"/>
<path d="M124 30.6665H132" stroke="white" stroke-width="2.66667" stroke-linecap="round" stroke-linejoin="round"/>
<path d="M128 26.6665V34.6665" stroke="white" stroke-width="2.66667" stroke-linecap="round" stroke-linejoin="round"/>
<path d="M130.67 39.2852C130.973 39.6891 131.302 40.0734 131.654 40.4359C131.827 40.627 131.942 40.8646 131.983 41.1196C132.025 41.3747 131.991 41.6363 131.887 41.8726C131.782 42.1089 131.611 42.3098 131.395 42.4507C131.178 42.5917 130.925 42.6667 130.667 42.6666H109.334C109.075 42.6667 108.822 42.5917 108.606 42.4507C108.389 42.3098 108.218 42.1089 108.114 41.8726C108.009 41.6363 107.976 41.3747 108.017 41.1196C108.058 40.8646 108.173 40.627 108.347 40.4359C110.12 38.6079 112 36.6652 112 30.6666C112 29.2945 112.353 27.9456 113.025 26.7494C113.697 25.5532 114.666 24.5499 115.837 23.8359C117.009 23.122 118.344 22.7214 119.716 22.6725C121.087 22.6237 122.447 22.9284 123.667 23.5572" stroke="white" stroke-width="2.66667" stroke-linecap="round" stroke-linejoin="round"/>
<defs>
<filter id="filter0_d_1801_149" x="0" y="0" width="156" height="156" filterUnits="userSpaceOnUse" color-interpolation-filters="sRGB">
<feFlood flood-opacity="0" result="BackgroundImageFix"/>
<feColorMatrix in="SourceAlpha" type="matrix" values="0 0 0 0 0 0 0 0 0 0 0 0 0 0 0 0 0 0 127 0" result="hardAlpha"/>
<feOffset dx="-4" dy="4"/>
<feGaussianBlur stdDeviation="4"/>
<feComposite in2="hardAlpha" operator="out"/>
<feColorMatrix type="matrix" values="0 0 0 0 0 0 0 0 0 0 0 0 0 0 0 0 0 0 0.24 0"/>
<feBlend mode="normal" in2="BackgroundImageFix" result="effect1_dropShadow_1801_149"/>
<feBlend mode="normal" in="SourceGraphic" in2="effect1_dropShadow_1801_149" result="shape"/>
</filter>
<linearGradient id="paint0_linear_1801_149" x1="152" y1="4" x2="12" y2="144" gradientUnits="userSpaceOnUse">
<stop stop-color="#F6D26D"/>
<stop offset="0.665551" stop-color="#07AD6A"/>
</linearGradient>
</defs>
</svg>
